REM DIRINDEX 1\2\4\18,1\2\4\19,1\2\5\20,1\2\5\21,1\2\6\22,1\2\7\23,1\2\8\24,1\2\8\25,1\2\9\26,1\2\10\27,1\3\11\28,1\3\11\29,1\3\11\30,1\3\11\31,1\3\12\32,1\3\12\33,1\3\12\34,1\3\12\35,1\3\13\36,1\3\13\37,1\3\14\38,1\3\14\39,1\3\15\40,1\3\15\41,1\3\15\42,1\3\16\43,1\3\16\44,1\3\17\45,1\3\17\46
REM DIRNAME cjc024,folder01,folder02,folder03,folder04,folder05,folder06,folder07,folder08,folder09,folder10,folder11,folder12,folder13,folder14,folder15,folder16,folder17,folder18,folder19,folder20,folder21,folder22,folder23,folder24,folder25,folder26,folder27,folder28,folder29,folder30,folder31,folder32,folder33,folder34,folder35,folder36,folder37,folder38,folder39,folder40,folder41,folder42,folder43,folder44,folder45
TITLE ""
FILE "13.mp3" MP3
  TRACK 01 AUDIO
    TITLE "0:"
    INDEX 01 00:00:00
  TRACK 02 AUDIO
    TITLE "18:cjc024_1967"
    INDEX 01 00:00:11
  TRACK 03 AUDIO
    TITLE "0:"
    INDEX 01 00:01:30
  TRACK 04 AUDIO
    TITLE "19:cjc024_1968"
    INDEX 01 00:01:58
  TRACK 05 AUDIO
    TITLE "0:"
    INDEX 01 00:03:63
  TRACK 06 AUDIO
    TITLE "18:cjc024_1969"
    INDEX 01 00:04:60
  TRACK 07 AUDIO
    TITLE "0:"
    INDEX 01 00:06:04
  TRACK 08 AUDIO
    TITLE "19:cjc024_1970"
    INDEX 01 00:06:26
  TRACK 09 AUDIO
    TITLE "0:"
    INDEX 01 00:08:23
  TRACK 10 AUDIO
    TITLE "18:cjc024_1971"
    INDEX 01 00:09:20
  TRACK 11 AUDIO
    TITLE "0:"
    INDEX 01 00:10:04
  TRACK 12 AUDIO
    TITLE "19:cjc024_1972"
    INDEX 01 00:10:41
  TRACK 13 AUDIO
    TITLE "0:"
    INDEX 01 00:11:52
  TRACK 14 AUDIO
    TITLE "18:cjc024_1973"
    INDEX 01 00:12:63
  TRACK 15 AUDIO
    TITLE "0:"
    INDEX 01 00:14:06
  TRACK 16 AUDIO
    TITLE "19:cjc024_1974"
    INDEX 01 00:14:37
  TRACK 17 AUDIO
    TITLE "0:"
    INDEX 01 00:16:36
  TRACK 18 AUDIO
    TITLE "18:cjc024_1975"
    INDEX 01 00:17:37
  TRACK 19 AUDIO
    TITLE "0:"
    INDEX 01 00:18:35
  TRACK 20 AUDIO
    TITLE "19:cjc024_1976"
    INDEX 01 00:18:60
  TRACK 21 AUDIO
    TITLE "0:"
    INDEX 01 00:20:30
  TRACK 22 AUDIO
    TITLE "18:cjc024_1977"
    INDEX 01 00:21:31
  TRACK 23 AUDIO
    TITLE "0:"
    INDEX 01 00:22:72
  TRACK 24 AUDIO
    TITLE "19:cjc024_1978"
    INDEX 01 00:23:22
  TRACK 25 AUDIO
    TITLE "0:"
    INDEX 01 00:26:11
  TRACK 26 AUDIO
    TITLE "18:cjc024_1979"
    INDEX 01 00:27:10
  TRACK 27 AUDIO
    TITLE "0:"
    INDEX 01 00:28:23
  TRACK 28 AUDIO
    TITLE "19:cjc024_1980"
    INDEX 01 00:28:47
  TRACK 29 AUDIO
    TITLE "0:"
    INDEX 01 00:30:65
  TRACK 30 AUDIO
    TITLE "18:cjc024_1981"
    INDEX 01 00:31:65
  TRACK 31 AUDIO
    TITLE "0:"
    INDEX 01 00:33:03
  TRACK 32 AUDIO
    TITLE "19:cjc024_1982"
    INDEX 01 00:33:28
  TRACK 33 AUDIO
    TITLE "0:"
    INDEX 01 00:36:38
  TRACK 34 AUDIO
    TITLE "18:cjc024_1983"
    INDEX 01 00:37:44
  TRACK 35 AUDIO
    TITLE "0:"
    INDEX 01 00:38:57
  TRACK 36 AUDIO
    TITLE "19:cjc024_1984"
    INDEX 01 00:39:07
  TRACK 37 AUDIO
    TITLE "0:"
    INDEX 01 00:40:46
  TRACK 38 AUDIO
    TITLE "18:cjc024_1985"
    INDEX 01 00:41:47
  TRACK 39 AUDIO
    TITLE "0:"
    INDEX 01 00:42:49
  TRACK 40 AUDIO
    TITLE "19:cjc024_1986"
    INDEX 01 00:42:72
  TRACK 41 AUDIO
    TITLE "0:"
    INDEX 01 00:44:36
  TRACK 42 AUDIO
    TITLE "18:cjc024_1987"
    INDEX 01 00:45:35
  TRACK 43 AUDIO
    TITLE "0:"
    INDEX 01 00:46:45
  TRACK 44 AUDIO
    TITLE "19:cjc024_1988"
    INDEX 01 00:46:70
  TRACK 45 AUDIO
    TITLE "0:"
    INDEX 01 00:48:61
  TRACK 46 AUDIO
    TITLE "18:cjc024_1989"
    INDEX 01 00:49:63
  TRACK 47 AUDIO
    TITLE "0:"
    INDEX 01 00:50:72
  TRACK 48 AUDIO
    TITLE "19:cjc024_1990"
    INDEX 01 00:51:22
  TRACK 49 AUDIO
    TITLE "0:"
    INDEX 01 00:53:11
  TRACK 50 AUDIO
    TITLE "18:cjc024_1991"
    INDEX 01 00:54:11
  TRACK 51 AUDIO
    TITLE "0:"
    INDEX 01 00:55:46
  TRACK 52 AUDIO
    TITLE "19:cjc024_1992"
    INDEX 01 00:55:71
  TRACK 53 AUDIO
    TITLE "0:"
    INDEX 01 00:58:36
  TRACK 54 AUDIO
    TITLE "18:cjc024_1993"
    INDEX 01 00:59:38
  TRACK 55 AUDIO
    TITLE "0:"
    INDEX 01 01:00:47
  TRACK 56 AUDIO
    TITLE "19:cjc024_1994"
    INDEX 01 01:00:72
  TRACK 57 AUDIO
    TITLE "0:"
    INDEX 01 01:03:06
  TRACK 58 AUDIO
    TITLE "18:cjc024_1995"
    INDEX 01 01:04:05
  TRACK 59 AUDIO
    TITLE "0:"
    INDEX 01 01:05:09
  TRACK 60 AUDIO
    TITLE "19:cjc024_1996"
    INDEX 01 01:05:34
  TRACK 61 AUDIO
    TITLE "0:"
    INDEX 01 01:07:06
  TRACK 62 AUDIO
    TITLE "18:cjc024_1997"
    INDEX 01 01:08:07
  TRACK 63 AUDIO
    TITLE "0:"
    INDEX 01 01:09:28
  TRACK 64 AUDIO
    TITLE "19:cjc024_1998"
    INDEX 01 01:09:54
  TRACK 65 AUDIO
    TITLE "0:"
    INDEX 01 01:11:37
  TRACK 66 AUDIO
    TITLE "18:cjc024_1999"
    INDEX 01 01:12:38
  TRACK 67 AUDIO
    TITLE "0:"
    INDEX 01 01:13:63
  TRACK 68 AUDIO
    TITLE "19:cjc024_2000"
    INDEX 01 01:14:14
  TRACK 69 AUDIO
    TITLE "0:"
    INDEX 01 01:17:14
  TRACK 70 AUDIO
    TITLE "18:cjc024_2001"
    INDEX 01 01:18:15
  TRACK 71 AUDIO
    TITLE "0:"
    INDEX 01 01:19:27
  TRACK 72 AUDIO
    TITLE "19:cjc024_2002"
    INDEX 01 01:19:50
  TRACK 73 AUDIO
    TITLE "0:"
    INDEX 01 01:21:21
  TRACK 74 AUDIO
    TITLE "18:cjc024_2003"
    INDEX 01 01:22:23
  TRACK 75 AUDIO
    TITLE "0:"
    INDEX 01 01:23:30
  TRACK 76 AUDIO
    TITLE "19:cjc024_2004"
    INDEX 01 01:23:56
  TRACK 77 AUDIO
    TITLE "0:"
    INDEX 01 01:25:53
  TRACK 78 AUDIO
    TITLE "18:cjc024_2005"
    INDEX 01 01:26:50
  TRACK 79 AUDIO
    TITLE "0:"
    INDEX 01 01:27:63
  TRACK 80 AUDIO
    TITLE "19:cjc024_2006"
    INDEX 01 01:28:16
  TRACK 81 AUDIO
    TITLE "0:"
    INDEX 01 01:30:07
  TRACK 82 AUDIO
    TITLE "18:cjc024_2007"
    INDEX 01 01:31:08
  TRACK 83 AUDIO
    TITLE "0:"
    INDEX 01 01:32:23
  TRACK 84 AUDIO
    TITLE "19:cjc024_2008"
    INDEX 01 01:32:47
  TRACK 85 AUDIO
    TITLE "0:"
    INDEX 01 01:35:35
  TRACK 86 AUDIO
    TITLE "18:cjc024_2009"
    INDEX 01 01:36:35
  TRACK 87 AUDIO
    TITLE "0:"
    INDEX 01 01:37:42
  TRACK 88 AUDIO
    TITLE "19:cjc024_2010"
    INDEX 01 01:37:68
  TRACK 89 AUDIO
    TITLE "0:"
    INDEX 01 01:40:36
  TRACK 90 AUDIO
    TITLE "18:cjc024_2011"
    INDEX 01 01:41:36
  TRACK 91 AUDIO
    TITLE "0:"
    INDEX 01 01:42:45
  TRACK 92 AUDIO
    TITLE "19:cjc024_2012"
    INDEX 01 01:42:71
  TRACK 93 AUDIO
    TITLE "0:"
    INDEX 01 01:45:65
  TRACK 94 AUDIO
    TITLE "18:cjc024_2013"
    INDEX 01 01:46:66
  TRACK 95 AUDIO
    TITLE "0:"
    INDEX 01 01:48:09
  TRACK 96 AUDIO
    TITLE "19:cjc024_2014"
    INDEX 01 01:48:40
  TRACK 97 AUDIO
    TITLE "0:"
    INDEX 01 01:50:70
  TRACK 98 AUDIO
    TITLE "18:cjc024_2015"
    INDEX 01 01:52:04
  TRACK 99 AUDIO
    TITLE "0:"
    INDEX 01 01:53:33
  TRACK 100 AUDIO
    TITLE "19:cjc024_2016"
    INDEX 01 01:53:57
  TRACK 101 AUDIO
    TITLE "0:"
    INDEX 01 01:57:15
  TRACK 102 AUDIO
    TITLE "18:cjc024_2017"
    INDEX 01 01:58:30
  TRACK 103 AUDIO
    TITLE "0:"
    INDEX 01 01:59:36
  TRACK 104 AUDIO
    TITLE "19:cjc024_2018"
    INDEX 01 01:59:71
  TRACK 105 AUDIO
    TITLE "0:"
    INDEX 01 02:02:34
  TRACK 106 AUDIO
    TITLE "18:cjc024_2019"
    INDEX 01 02:03:39
  TRACK 107 AUDIO
    TITLE "0:"
    INDEX 01 02:04:64
  TRACK 108 AUDIO
    TITLE "19:cjc024_2020"
    INDEX 01 02:05:23
  TRACK 109 AUDIO
    TITLE "0:"
    INDEX 01 02:07:18
  TRACK 110 AUDIO
    TITLE "18:cjc024_2021"
    INDEX 01 02:08:17
  TRACK 111 AUDIO
    TITLE "0:"
    INDEX 01 02:09:26
  TRACK 112 AUDIO
    TITLE "19:cjc024_2022"
    INDEX 01 02:09:52
  TRACK 113 AUDIO
    TITLE "0:"
    INDEX 01 02:11:43
  TRACK 114 AUDIO
    TITLE "18:cjc024_2023"
    INDEX 01 02:12:42
  TRACK 115 AUDIO
    TITLE "0:"
    INDEX 01 02:13:59
  TRACK 116 AUDIO
    TITLE "19:cjc024_2024"
    INDEX 01 02:14:10
  TRACK 117 AUDIO
    TITLE "0:"
    INDEX 01 02:16:01
  TRACK 118 AUDIO
    TITLE "18:cjc024_2025"
    INDEX 01 02:17:00
  TRACK 119 AUDIO
    TITLE "0:"
    INDEX 01 02:18:18
  TRACK 120 AUDIO
    TITLE "19:cjc024_2026"
    INDEX 01 02:18:55
  TRACK 121 AUDIO
    TITLE "0:"
    INDEX 01 02:21:08
  TRACK 122 AUDIO
    TITLE "18:cjc024_2027"
    INDEX 01 02:22:21
  TRACK 123 AUDIO
    TITLE "0:"
    INDEX 01 02:23:38
  TRACK 124 AUDIO
    TITLE "19:cjc024_2028"
    INDEX 01 02:23:64
  TRACK 125 AUDIO
    TITLE "0:"
    INDEX 01 02:26:23
  TRACK 126 AUDIO
    TITLE "18:cjc024_2029"
    INDEX 01 02:27:22
  TRACK 127 AUDIO
    TITLE "0:"
    INDEX 01 02:28:45
  TRACK 128 AUDIO
    TITLE "19:cjc024_2030"
    INDEX 01 02:28:71
  TRACK 129 AUDIO
    TITLE "0:"
    INDEX 01 02:31:08
  TRACK 130 AUDIO
    TITLE "18:cjc024_2031"
    INDEX 01 02:32:16
  TRACK 131 AUDIO
    TITLE "0:"
    INDEX 01 02:33:19
  TRACK 132 AUDIO
    TITLE "19:cjc024_2032"
    INDEX 01 02:33:45
  TRACK 133 AUDIO
    TITLE "0:"
    INDEX 01 02:36:08
  TRACK 134 AUDIO
    TITLE "18:cjc024_2033"
    INDEX 01 02:37:07
  TRACK 135 AUDIO
    TITLE "0:"
    INDEX 01 02:38:32
  TRACK 136 AUDIO
    TITLE "19:cjc024_2034"
    INDEX 01 02:38:59
  TRACK 137 AUDIO
    TITLE "0:"
    INDEX 01 02:40:41
  TRACK 138 AUDIO
    TITLE "18:cjc024_2035"
    INDEX 01 02:41:42
  TRACK 139 AUDIO
    TITLE "0:"
    INDEX 01 02:42:51
  TRACK 140 AUDIO
    TITLE "19:cjc024_2036"
    INDEX 01 02:43:00
  TRACK 141 AUDIO
    TITLE "0:"
    INDEX 01 02:45:18
  TRACK 142 AUDIO
    TITLE "18:cjc024_2037"
    INDEX 01 02:46:18
  TRACK 143 AUDIO
    TITLE "0:"
    INDEX 01 02:47:39
  TRACK 144 AUDIO
    TITLE "19:cjc024_2038"
    INDEX 01 02:47:62
  TRACK 145 AUDIO
    TITLE "0:"
    INDEX 01 02:50:31
  TRACK 146 AUDIO
    TITLE "18:cjc024_2039"
    INDEX 01 02:51:33
  TRACK 147 AUDIO
    TITLE "0:"
    INDEX 01 02:52:61
  TRACK 148 AUDIO
    TITLE "19:cjc024_2040"
    INDEX 01 02:53:10
  TRACK 149 AUDIO
    TITLE "0:"
    INDEX 01 02:54:53
  TRACK 150 AUDIO
    TITLE "18:cjc024_2041"
    INDEX 01 02:55:52
  TRACK 151 AUDIO
    TITLE "0:"
    INDEX 01 02:57:04
  TRACK 152 AUDIO
    TITLE "19:cjc024_2042"
    INDEX 01 02:57:29
  TRACK 153 AUDIO
    TITLE "0:"
    INDEX 01 02:59:13
  TRACK 154 AUDIO
    TITLE "18:cjc024_2043"
    INDEX 01 03:00:12
  TRACK 155 AUDIO
    TITLE "0:"
    INDEX 01 03:01:25
  TRACK 156 AUDIO
    TITLE "19:cjc024_2044"
    INDEX 01 03:01:51
  TRACK 157 AUDIO
    TITLE "0:"
    INDEX 01 03:04:18
  TRACK 158 AUDIO
    TITLE "18:cjc024_2045"
    INDEX 01 03:05:21
  TRACK 159 AUDIO
    TITLE "0:"
    INDEX 01 03:06:42
  TRACK 160 AUDIO
    TITLE "19:cjc024_2046"
    INDEX 01 03:06:69
  TRACK 161 AUDIO
    TITLE "0:"
    INDEX 01 03:09:15
  TRACK 162 AUDIO
    TITLE "18:cjc024_2047"
    INDEX 01 03:10:18
  TRACK 163 AUDIO
    TITLE "0:"
    INDEX 01 03:11:29
  TRACK 164 AUDIO
    TITLE "19:cjc024_2048"
    INDEX 01 03:11:57
  TRACK 165 AUDIO
    TITLE "0:"
    INDEX 01 03:13:13
  TRACK 166 AUDIO
    TITLE "18:cjc024_2049"
    INDEX 01 03:14:30
  TRACK 167 AUDIO
    TITLE "0:"
    INDEX 01 03:15:55
  TRACK 168 AUDIO
    TITLE "19:cjc024_2050"
    INDEX 01 03:16:11
  TRACK 169 AUDIO
    TITLE "0:"
    INDEX 01 03:18:71
  TRACK 170 AUDIO
    TITLE "18:cjc024_2051"
    INDEX 01 03:20:01
  TRACK 171 AUDIO
    TITLE "0:"
    INDEX 01 03:21:16
  TRACK 172 AUDIO
    TITLE "19:cjc024_2052"
    INDEX 01 03:21:38
  TRACK 173 AUDIO
    TITLE "0:"
    INDEX 01 03:23:11
  TRACK 174 AUDIO
    TITLE "18:cjc024_2053"
    INDEX 01 03:24:14
  TRACK 175 AUDIO
    TITLE "0:"
    INDEX 01 03:25:28
  TRACK 176 AUDIO
    TITLE "19:cjc024_2054"
    INDEX 01 03:25:57
  TRACK 177 AUDIO
    TITLE "0:"
    INDEX 01 03:29:20
  TRACK 178 AUDIO
    TITLE "18:cjc024_2055"
    INDEX 01 03:30:29
  TRACK 179 AUDIO
    TITLE "0:"
    INDEX 01 03:31:40
  TRACK 180 AUDIO
    TITLE "19:cjc024_2056"
    INDEX 01 03:31:65
  TRACK 181 AUDIO
    TITLE "0:"
    INDEX 01 03:34:58
  TRACK 182 AUDIO
    TITLE "18:cjc024_2057"
    INDEX 01 03:35:55
  TRACK 183 AUDIO
    TITLE "0:"
    INDEX 01 03:36:72
  TRACK 184 AUDIO
    TITLE "19:cjc024_2058"
    INDEX 01 03:37:29
  TRACK 185 AUDIO
    TITLE "0:"
    INDEX 01 03:39:04
  TRACK 186 AUDIO
    TITLE "18:cjc024_2059"
    INDEX 01 03:40:06
  TRACK 187 AUDIO
    TITLE "0:"
    INDEX 01 03:41:29
  TRACK 188 AUDIO
    TITLE "19:cjc024_2060"
    INDEX 01 03:41:56
  TRACK 189 AUDIO
    TITLE "0:"
    INDEX 01 03:44:29
  TRACK 190 AUDIO
    TITLE "18:cjc024_2061"
    INDEX 01 03:45:30
  TRACK 191 AUDIO
    TITLE "0:"
    INDEX 01 03:46:30
  TRACK 192 AUDIO
    TITLE "19:cjc024_2062"
    INDEX 01 03:46:59
  TRACK 193 AUDIO
    TITLE "0:"
    INDEX 01 03:49:14
  TRACK 194 AUDIO
    TITLE "18:cjc024_2063"
    INDEX 01 03:50:18
  TRACK 195 AUDIO
    TITLE "0:"
    INDEX 01 03:51:43
  TRACK 196 AUDIO
    TITLE "19:cjc024_2064"
    INDEX 01 03:51:68
  TRACK 197 AUDIO
    TITLE "0:"
    INDEX 01 03:53:36
  TRACK 198 AUDIO
    TITLE "18:cjc024_2065"
    INDEX 01 03:54:43
  TRACK 199 AUDIO
    TITLE "0:"
    INDEX 01 03:55:52
  TRACK 200 AUDIO
    TITLE "19:cjc024_2066"
    INDEX 01 03:56:11
  TRACK 201 AUDIO
    TITLE "0:"
    INDEX 01 03:57:63
  TRACK 202 AUDIO
    TITLE "18:cjc024_2067"
    INDEX 01 03:58:62
  TRACK 203 AUDIO
    TITLE "0:"
    INDEX 01 04:00:08
  TRACK 204 AUDIO
    TITLE "19:cjc024_2068"
    INDEX 01 04:00:32
  TRACK 205 AUDIO
    TITLE "0:"
    INDEX 01 04:02:21
  TRACK 206 AUDIO
    TITLE "18:cjc024_2069"
    INDEX 01 04:03:20
  TRACK 207 AUDIO
    TITLE "0:"
    INDEX 01 04:04:14
  TRACK 208 AUDIO
    TITLE "19:cjc024_2070"
    INDEX 01 04:04:39
  TRACK 209 AUDIO
    TITLE "0:"
    INDEX 01 04:06:13
  TRACK 210 AUDIO
    TITLE "18:cjc024_2071"
    INDEX 01 04:07:16
  TRACK 211 AUDIO
    TITLE "0:"
    INDEX 01 04:08:29
  TRACK 212 AUDIO
    TITLE "19:cjc024_2072"
    INDEX 01 04:08:55
  TRACK 213 AUDIO
    TITLE "0:"
    INDEX 01 04:11:28
  TRACK 214 AUDIO
    TITLE "18:cjc024_2073"
    INDEX 01 04:12:27
  TRACK 215 AUDIO
    TITLE "0:"
    INDEX 01 04:13:33
  TRACK 216 AUDIO
    TITLE "19:cjc024_2074"
    INDEX 01 04:13:56
  TRACK 217 AUDIO
    TITLE "0:"
    INDEX 01 04:16:09
  TRACK 218 AUDIO
    TITLE "18:cjc024_2075"
    INDEX 01 04:17:13
  TRACK 219 AUDIO
    TITLE "0:"
    INDEX 01 04:18:28
  TRACK 220 AUDIO
    TITLE "19:cjc024_2076"
    INDEX 01 04:18:53
  TRACK 221 AUDIO
    TITLE "0:"
    INDEX 01 04:21:36
  TRACK 222 AUDIO
    TITLE "18:cjc024_2077"
    INDEX 01 04:22:37
  TRACK 223 AUDIO
    TITLE "0:"
    INDEX 01 04:23:41
  TRACK 224 AUDIO
    TITLE "19:cjc024_2078"
    INDEX 01 04:23:66
  TRACK 225 AUDIO
    TITLE "0:"
    INDEX 01 04:26:70
  TRACK 226 AUDIO
    TITLE "18:cjc024_2079"
    INDEX 01 04:28:01
  TRACK 227 AUDIO
    TITLE "0:"
    INDEX 01 04:29:32
  TRACK 228 AUDIO
    TITLE "19:cjc024_2080"
    INDEX 01 04:29:57
  TRACK 229 AUDIO
    TITLE "0:"
    INDEX 01 04:31:48
  TRACK 230 AUDIO
    TITLE "18:cjc024_2081"
    INDEX 01 04:32:49
  TRACK 231 AUDIO
    TITLE "0:"
    INDEX 01 04:33:59
  TRACK 232 AUDIO
    TITLE "19:cjc024_2082"
    INDEX 01 04:34:07
  TRACK 233 AUDIO
    TITLE "0:"
    INDEX 01 04:36:53
  TRACK 234 AUDIO
    TITLE "18:cjc024_2083"
    INDEX 01 04:37:53
  TRACK 235 AUDIO
    TITLE "0:"
    INDEX 01 04:38:62
  TRACK 236 AUDIO
    TITLE "19:cjc024_2084"
    INDEX 01 04:39:12
  TRACK 237 AUDIO
    TITLE "0:"
    INDEX 01 04:40:59
  TRACK 238 AUDIO
    TITLE "18:cjc024_2085"
    INDEX 01 04:41:58
  TRACK 239 AUDIO
    TITLE "0:"
    INDEX 01 04:42:73
  TRACK 240 AUDIO
    TITLE "19:cjc024_2086"
    INDEX 01 04:43:24
  TRACK 241 AUDIO
    TITLE "0:"
    INDEX 01 04:44:64
  TRACK 242 AUDIO
    TITLE "18:cjc024_2087"
    INDEX 01 04:45:60
  TRACK 243 AUDIO
    TITLE "0:"
    INDEX 01 04:47:04
  TRACK 244 AUDIO
    TITLE "19:cjc024_2088"
    INDEX 01 04:47:22
  TRACK 245 AUDIO
    TITLE "0:"
    INDEX 01 04:48:74
  TRACK 246 AUDIO
    TITLE "18:cjc024_2089"
    INDEX 01 04:50:04
  TRACK 247 AUDIO
    TITLE "0:"
    INDEX 01 04:51:08
  TRACK 248 AUDIO
    TITLE "19:cjc024_2090"
    INDEX 01 04:51:33
  TRACK 249 AUDIO
    TITLE "0:"
    INDEX 01 04:53:63
  TRACK 250 AUDIO
    TITLE "18:cjc024_2091"
    INDEX 01 04:54:65
  TRACK 251 AUDIO
    TITLE "0:"
    INDEX 01 04:56:05
  TRACK 252 AUDIO
    TITLE "19:cjc024_2092"
    INDEX 01 04:56:36
  TRACK 253 AUDIO
    TITLE "0:"
    INDEX 01 04:58:53
  TRACK 254 AUDIO
    TITLE "18:cjc024_2093"
    INDEX 01 04:59:58
  TRACK 255 AUDIO
    TITLE "0:"
    INDEX 01 05:00:63
  TRACK 256 AUDIO
    TITLE "19:cjc024_2094"
    INDEX 01 05:01:20
  TRACK 257 AUDIO
    TITLE "0:"
    INDEX 01 05:03:58
  TRACK 258 AUDIO
    TITLE "18:cjc024_2095"
    INDEX 01 05:04:57
  TRACK 259 AUDIO
    TITLE "0:"
    INDEX 01 05:05:74
  TRACK 260 AUDIO
    TITLE "19:cjc024_2096"
    INDEX 01 05:06:23
  TRACK 261 AUDIO
    TITLE "0:"
    INDEX 01 05:08:47
  TRACK 262 AUDIO
    TITLE "18:cjc024_2097"
    INDEX 01 05:09:47
  TRACK 263 AUDIO
    TITLE "0:"
    INDEX 01 05:10:62
  TRACK 264 AUDIO
    TITLE "19:cjc024_2098"
    INDEX 01 05:11:14
  TRACK 265 AUDIO
    TITLE "0:"
    INDEX 01 05:12:47
  TRACK 266 AUDIO
    TITLE "18:cjc024_2099"
    INDEX 01 05:13:45
  TRACK 267 AUDIO
    TITLE "0:"
    INDEX 01 05:14:69
  TRACK 268 AUDIO
    TITLE "19:cjc024_2100"
    INDEX 01 05:15:18
  TRACK 269 AUDIO
    TITLE "0:"
    INDEX 01 05:17:09
  TRACK 270 AUDIO
    TITLE "18:cjc024_2101"
    INDEX 01 05:18:08
  TRACK 271 AUDIO
    TITLE "0:"
    INDEX 01 05:19:29
  TRACK 272 AUDIO
    TITLE "19:cjc024_2102"
    INDEX 01 05:19:53
  TRACK 273 AUDIO
    TITLE "0:"
    INDEX 01 05:22:42
  TRACK 274 AUDIO
    TITLE "18:cjc024_2103"
    INDEX 01 05:23:45
  TRACK 275 AUDIO
    TITLE "0:"
    INDEX 01 05:24:60
  TRACK 276 AUDIO
    TITLE "19:cjc024_2104"
    INDEX 01 05:25:09
  TRACK 277 AUDIO
    TITLE "0:"
    INDEX 01 05:27:66
  TRACK 278 AUDIO
    TITLE "18:cjc024_2105"
    INDEX 01 05:28:66
  TRACK 279 AUDIO
    TITLE "0:"
    INDEX 01 05:30:06
  TRACK 280 AUDIO
    TITLE "19:cjc024_2106"
    INDEX 01 05:30:27
  TRACK 281 AUDIO
    TITLE "0:"
    INDEX 01 05:33:24
  TRACK 282 AUDIO
    TITLE "18:cjc024_2107"
    INDEX 01 05:34:25
  TRACK 283 AUDIO
    TITLE "0:"
    INDEX 01 05:35:62
  TRACK 284 AUDIO
    TITLE "19:cjc024_2108"
    INDEX 01 05:36:12
  TRACK 285 AUDIO
    TITLE "0:"
    INDEX 01 05:38:41
  TRACK 286 AUDIO
    TITLE "18:cjc024_2109"
    INDEX 01 05:39:40
  TRACK 287 AUDIO
    TITLE "0:"
    INDEX 01 05:40:55
  TRACK 288 AUDIO
    TITLE "19:cjc024_2110"
    INDEX 01 05:41:06
  TRACK 289 AUDIO
    TITLE "0:"
    INDEX 01 05:42:72
  TRACK 290 AUDIO
    TITLE "18:cjc024_2111"
    INDEX 01 05:43:73
  TRACK 291 AUDIO
    TITLE "0:"
    INDEX 01 05:45:31
  TRACK 292 AUDIO
    TITLE "19:cjc024_2112"
    INDEX 01 05:45:56
  TRACK 293 AUDIO
    TITLE "0:"
    INDEX 01 05:47:45
  TRACK 294 AUDIO
    TITLE "18:cjc024_2113"
    INDEX 01 05:48:47
  TRACK 295 AUDIO
    TITLE "0:"
    INDEX 01 05:49:62
  TRACK 296 AUDIO
    TITLE "19:cjc024_2114"
    INDEX 01 05:50:12
  TRACK 297 AUDIO
    TITLE "0:"
    INDEX 01 05:52:15
  TRACK 298 AUDIO
    TITLE "18:cjc024_2115"
    INDEX 01 05:53:17
  TRACK 299 AUDIO
    TITLE "0:"
    INDEX 01 05:54:30
  TRACK 300 AUDIO
    TITLE "19:cjc024_2116"
    INDEX 01 05:54:55
  TRACK 301 AUDIO
    TITLE "0:"
    INDEX 01 05:57:28
  TRACK 302 AUDIO
    TITLE "18:cjc024_2117"
    INDEX 01 05:58:28
  TRACK 303 AUDIO
    TITLE "0:"
    INDEX 01 05:59:43
  TRACK 304 AUDIO
    TITLE "19:cjc024_2118"
    INDEX 01 05:59:68
  TRACK 305 AUDIO
    TITLE "0:"
    INDEX 01 06:01:67
  TRACK 306 AUDIO
    TITLE "18:cjc024_2119"
    INDEX 01 06:02:68
  TRACK 307 AUDIO
    TITLE "0:"
    INDEX 01 06:04:12
  TRACK 308 AUDIO
    TITLE "19:cjc024_2120"
    INDEX 01 06:04:38
  TRACK 309 AUDIO
    TITLE "0:"
    INDEX 01 06:06:15
  TRACK 310 AUDIO
    TITLE "18:cjc024_2121"
    INDEX 01 06:07:19
  TRACK 311 AUDIO
    TITLE "0:"
    INDEX 01 06:08:28
  TRACK 312 AUDIO
    TITLE "19:cjc024_2122"
    INDEX 01 06:08:53
  TRACK 313 AUDIO
    TITLE "0:"
    INDEX 01 06:10:46
  TRACK 314 AUDIO
    TITLE "18:cjc024_2123"
    INDEX 01 06:11:46
  TRACK 315 AUDIO
    TITLE "0:"
    INDEX 01 06:12:53
  TRACK 316 AUDIO
    TITLE "19:cjc024_2124"
    INDEX 01 06:13:04
  TRACK 317 AUDIO
    TITLE "0:"
    INDEX 01 06:15:69
  TRACK 318 AUDIO
    TITLE "18:cjc024_2125"
    INDEX 01 06:16:71
  TRACK 319 AUDIO
    TITLE "0:"
    INDEX 01 06:18:11
  TRACK 320 AUDIO
    TITLE "19:cjc024_2126"
    INDEX 01 06:18:36
  TRACK 321 AUDIO
    TITLE "0:"
    INDEX 01 06:20:35
  TRACK 322 AUDIO
    TITLE "18:cjc024_2127"
    INDEX 01 06:21:34
  TRACK 323 AUDIO
    TITLE "0:"
    INDEX 01 06:22:50
  TRACK 324 AUDIO
    TITLE "19:cjc024_2128"
    INDEX 01 06:23:02
  TRACK 325 AUDIO
    TITLE "0:"
    INDEX 01 06:25:38
  TRACK 326 AUDIO
    TITLE "18:cjc024_2129"
    INDEX 01 06:26:42
  TRACK 327 AUDIO
    TITLE "0:"
    INDEX 01 06:27:51
  TRACK 328 AUDIO
    TITLE "19:cjc024_2130"
    INDEX 01 06:27:74
  TRACK 329 AUDIO
    TITLE "0:"
    INDEX 01 06:30:57
  TRACK 330 AUDIO
    TITLE "18:cjc024_2131"
    INDEX 01 06:31:62
  TRACK 331 AUDIO
    TITLE "0:"
    INDEX 01 06:33:02
  TRACK 332 AUDIO
    TITLE "19:cjc024_2132"
    INDEX 01 06:33:26
  TRACK 333 AUDIO
    TITLE "0:"
    INDEX 01 06:35:39
  TRACK 334 AUDIO
    TITLE "18:cjc024_2133"
    INDEX 01 06:36:40
  TRACK 335 AUDIO
    TITLE "0:"
    INDEX 01 06:37:61
  TRACK 336 AUDIO
    TITLE "19:cjc024_2134"
    INDEX 01 06:38:11
  TRACK 337 AUDIO
    TITLE "0:"
    INDEX 01 06:40:48
  TRACK 338 AUDIO
    TITLE "18:cjc024_2135"
    INDEX 01 06:41:49
  TRACK 339 AUDIO
    TITLE "0:"
    INDEX 01 06:42:66
  TRACK 340 AUDIO
    TITLE "19:cjc024_2136"
    INDEX 01 06:43:18
  TRACK 341 AUDIO
    TITLE "0:"
    INDEX 01 06:45:17
  TRACK 342 AUDIO
    TITLE "18:cjc024_2137"
    INDEX 01 06:46:17
  TRACK 343 AUDIO
    TITLE "0:"
    INDEX 01 06:47:22
  TRACK 344 AUDIO
    TITLE "19:cjc024_2138"
    INDEX 01 06:47:46
  TRACK 345 AUDIO
    TITLE "0:"
    INDEX 01 06:50:38
  TRACK 346 AUDIO
    TITLE "18:cjc024_2139"
    INDEX 01 06:51:38
  TRACK 347 AUDIO
    TITLE "0:"
    INDEX 01 06:52:55
  TRACK 348 AUDIO
    TITLE "19:cjc024_2140"
    INDEX 01 06:53:05
  TRACK 349 AUDIO
    TITLE "0:"
    INDEX 01 06:55:04
  TRACK 350 AUDIO
    TITLE "18:cjc024_2141"
    INDEX 01 06:56:03
  TRACK 351 AUDIO
    TITLE "0:"
    INDEX 01 06:57:26
  TRACK 352 AUDIO
    TITLE "19:cjc024_2142"
    INDEX 01 06:57:50
  TRACK 353 AUDIO
    TITLE "0:"
    INDEX 01 06:59:63
  TRACK 354 AUDIO
    TITLE "18:cjc024_2143"
    INDEX 01 07:00:60
  TRACK 355 AUDIO
    TITLE "0:"
    INDEX 01 07:01:56
  TRACK 356 AUDIO
    TITLE "19:cjc024_2144"
    INDEX 01 07:02:06
  TRACK 357 AUDIO
    TITLE "0:"
    INDEX 01 07:03:51
  TRACK 358 AUDIO
    TITLE "18:cjc024_2145"
    INDEX 01 07:04:50
  TRACK 359 AUDIO
    TITLE "0:"
    INDEX 01 07:05:67
  TRACK 360 AUDIO
    TITLE "19:cjc024_2146"
    INDEX 01 07:06:21
  TRACK 361 AUDIO
    TITLE "0:"
    INDEX 01 07:08:65
  TRACK 362 AUDIO
    TITLE "18:cjc024_2147"
    INDEX 01 07:09:65
  TRACK 363 AUDIO
    TITLE "0:"
    INDEX 01 07:10:64
  TRACK 364 AUDIO
    TITLE "19:cjc024_2148"
    INDEX 01 07:11:15
  TRACK 365 AUDIO
    TITLE "0:"
    INDEX 01 07:13:37
  TRACK 366 AUDIO
    TITLE "18:cjc024_2149"
    INDEX 01 07:14:39
  TRACK 367 AUDIO
    TITLE "0:"
    INDEX 01 07:15:52
  TRACK 368 AUDIO
    TITLE "19:cjc024_2150"
    INDEX 01 07:16:02
  TRACK 369 AUDIO
    TITLE "0:"
    INDEX 01 07:17:49
  TRACK 370 AUDIO
    TITLE "18:cjc024_2151"
    INDEX 01 07:18:48
  TRACK 371 AUDIO
    TITLE "0:"
    INDEX 01 07:19:65
  TRACK 372 AUDIO
    TITLE "19:cjc024_2152"
    INDEX 01 07:20:18
  TRACK 373 AUDIO
    TITLE "0:"
    INDEX 01 07:22:13
  TRACK 374 AUDIO
    TITLE "18:cjc024_2153"
    INDEX 01 07:23:10
  TRACK 375 AUDIO
    TITLE "0:"
    INDEX 01 07:24:15
  TRACK 376 AUDIO
    TITLE "19:cjc024_2154"
    INDEX 01 07:24:39
  TRACK 377 AUDIO
    TITLE "0:"
    INDEX 01 07:26:18
  TRACK 378 AUDIO
    TITLE "18:cjc024_2155"
    INDEX 01 07:27:20
  TRACK 379 AUDIO
    TITLE "0:"
    INDEX 01 07:28:21
  TRACK 380 AUDIO
    TITLE "19:cjc024_2156"
    INDEX 01 07:28:45
  TRACK 381 AUDIO
    TITLE "0:"
    INDEX 01 07:30:10
  TRACK 382 AUDIO
    TITLE "18:cjc024_2157"
    INDEX 01 07:31:10
  TRACK 383 AUDIO
    TITLE "0:"
    INDEX 01 07:32:17
  TRACK 384 AUDIO
    TITLE "19:cjc024_2158"
    INDEX 01 07:32:40
  TRACK 385 AUDIO
    TITLE "0:"
    INDEX 01 07:34:59
  TRACK 386 AUDIO
    TITLE "18:cjc024_2159"
    INDEX 01 07:35:60
  TRACK 387 AUDIO
    TITLE "0:"
    INDEX 01 07:36:73
  TRACK 388 AUDIO
    TITLE "19:cjc024_2160"
    INDEX 01 07:37:22
  TRACK 389 AUDIO
    TITLE "0:"
    INDEX 01 07:40:40
  TRACK 390 AUDIO
    TITLE "18:cjc024_2161"
    INDEX 01 07:41:39
  TRACK 391 AUDIO
    TITLE "0:"
    INDEX 01 07:42:60
  TRACK 392 AUDIO
    TITLE "19:cjc024_2162"
    INDEX 01 07:43:11
  TRACK 393 AUDIO
    TITLE "0:"
    INDEX 01 07:45:16
  TRACK 394 AUDIO
    TITLE "18:cjc024_2163"
    INDEX 01 07:46:15
  TRACK 395 AUDIO
    TITLE "0:"
    INDEX 01 07:47:42
  TRACK 396 AUDIO
    TITLE "19:cjc024_2164"
    INDEX 01 07:47:67
  TRACK 397 AUDIO
    TITLE "0:"
    INDEX 01 07:50:21
  TRACK 398 AUDIO
    TITLE "18:cjc024_2165"
    INDEX 01 07:51:20
  TRACK 399 AUDIO
    TITLE "0:"
    INDEX 01 07:52:39
  TRACK 400 AUDIO
    TITLE "19:cjc024_2166"
    INDEX 01 07:52:65
  TRACK 401 AUDIO
    TITLE "0:"
    INDEX 01 07:54:69
